<svg xmlns="http://www.w3.org/2000/svg" width="7" height="11" viewBox="0 0 7 11">
    <path fill="#878AFF" fill-rule="nonzero" d="M2.709 2.861v1.682h1.359a.799.799 0 0 0 .574-.247.853.853 0 0 0 0-1.187.798.798 0 0 0-.574-.248h-1.36zm1.777 5.99V10.5H3.305V8.85h-.408v1.65h-1.18V8.855H.013l.222-1.22h.78a.521.521 0 0 0 .512-.53V3.38a.521.521 0 0 0-.512-.53H0V1.63h1.717V0h1.18v1.64h.408V0h1.181v1.687c.382.084.724.283.991.559.361.373.586.889.586 1.456 0 .38-.1.735-.275 1.041.225.108.428.255.6.434.378.39.612.928.612 1.52 0 .594-.234 1.132-.612 1.522-.377.39-.898.632-1.472.632h-.43zM2.709 5.765V7.63h2.207a.885.885 0 0 0 .638-.275.945.945 0 0 0 0-1.317.886.886 0 0 0-.638-.274H2.71z"/>
</svg>
