<svg xmlns="http://www.w3.org/2000/svg" width="12" height="18" viewBox="0 0 12 18">
    <path fill="#4346B4" fill-rule="nonzero" d="M4.749 5.385v2.66h2.149c.353 0 .674-.15.908-.391a1.348 1.348 0 0 0 0-1.878 1.262 1.262 0 0 0-.908-.391h-2.15zm2.81 9.472v2.608H5.692v-2.608h-.645v2.608H3.18v-2.602H.487l.35-1.93h1.235c.446 0 .81-.375.81-.836V6.203c0-.46-.364-.836-.81-.836H.465v-1.93H3.18V.86h1.867v2.595h.645V.86h1.867v2.668a3.129 3.129 0 0 1 1.568.884c.571.59.925 1.406.925 2.303 0 .6-.158 1.163-.433 1.646.354.17.675.403.949.686.597.617.967 1.468.967 2.405 0 .938-.37 1.79-.967 2.406-.597.617-1.421 1-2.328 1h-.68zm-2.81-4.88v2.95H8.24a1.4 1.4 0 0 0 1.007-.434 1.495 1.495 0 0 0 0-2.082 1.4 1.4 0 0 0-1.007-.434H4.749z"/>
</svg>
