<svg xmlns="http://www.w3.org/2000/svg" width="19" height="19" viewBox="0 0 19 19">
    <path fill="#6468FF" fill-rule="nonzero" d="M4.515 19c-.648 0-1.18-.511-1.18-1.134V3.93L2.036 5.174a1.264 1.264 0 0 1-1.506.178 1.09 1.09 0 0 1-.185-1.734L3.821.283a.994.994 0 0 1 1.39 0l3.45 3.312c.51.49.44 1.334-.185 1.734-.463.29-1.111.2-1.505-.177L5.674 3.907v13.96C5.697 18.51 5.164 19 4.515 19zm10.705-.28l3.443-3.31a1.104 1.104 0 0 0-.185-1.731c-.462-.289-1.11-.2-1.502.177L15.682 15.1V1.133C15.682.51 15.151 0 14.504 0c-.647 0-1.178.51-1.178 1.133v13.945l-1.294-1.244a1.26 1.26 0 0 0-1.502-.177 1.09 1.09 0 0 0-.185 1.732l3.443 3.308c.415.4 1.04.4 1.432.023z" opacity=".542"/>
</svg>
