<svg xmlns="http://www.w3.org/2000/svg" width="14" height="14" viewBox="0 0 14 14">
    <path fill="#4346B4" fill-rule="evenodd" d="M12.508 13.822a.073.073 0 0 1-.07.053H1.233a.074.074 0 0 1-.071-.092L2.23 9.51l-1.316.503a.074.074 0 0 1-.1-.069V8.283c0-.032.02-.059.048-.07l1.861-.677L4.55.219a.074.074 0 0 1 .072-.056h4.35a.074.074 0 0 1 .071.093L7.532 5.784l1.646-.6a.073.073 0 0 1 .099.07v1.514c0 .03-.02.058-.048.07l-2.216.846-.985 3.604h7.14c.024 0 .046.011.06.03a.073.073 0 0 1 .011.065l-.731 2.44z"/>
</svg>
